<svg xmlns="http://www.w3.org/2000/svg" width="2835" height="2835" viewBox="0 0 2834.7 2834.7"><path d="M1417.4 0.1C634.6 0.1 0.1 634.6 0.1 1417.4c0 782.8 634.6 1417.3 1417.3 1417.3 782.8 0 1417.3-634.6 1417.3-1417.3C2834.7 634.6 2200.2 0.1 1417.4 0.1zM1417.4 2622.1c-665.4 0-1204.7-539.4-1204.7-1204.7 0-665.3 539.4-1204.7 1204.7-1204.7 665.4 0 1204.7 539.4 1204.7 1204.7C2622.1 2082.8 2082.8 2622.1 1417.4 2622.1z"/><polygon points="2126.1 1043.8 1971.5 889.1 1224.1 1636.5 863.4 1275.7 708.8 1430.3 1069.5 1791.1 1069.5 1791.1 1105.2 1826.8 1224.1 1945.7 1378.8 1791.1 1378.8 1791.1 "/></svg>
