<svg xmlns="http://www.w3.org/2000/svg" width="283" height="283" viewBox="0 0 283.5 283.5"><style>.a{fill:#fff;}</style><path d="M141.7-0.5C63.5-0.5 0 63 0 141.2c0 78.3 63.5 141.7 141.7 141.7 78.3 0 141.7-63.5 141.7-141.7C283.5 63 220-0.5 141.7-0.5zM141.7 261.7c-66.5 0-120.5-53.9-120.5-120.5 0-66.5 53.9-120.5 120.5-120.5s120.5 53.9 120.5 120.5C262.2 207.8 208.3 261.7 141.7 261.7z" class="a"/><path d="M180.6 91.6l-28.4 28.4V51.8c0-7.2-6-13.1-13.5-13.1s-13.5 5.9-13.5 13.1v101.3c0 7.2 6 13.1 13.5 13.1 4.7 0 7.3-1.4 11.7-5.5l49.2-50.1c5.3-5.3 5.3-13.8 0-19C194.4 86.4 185.9 86.4 180.6 91.6z" class="a"/></svg>
