<svg xmlns="http://www.w3.org/2000/svg" width="283" height="283" viewBox="0 0 283.5 283.5"><path d="M243.3 101l-96-66.5c-16.1-11.2-45.4-20.3-65.1-20.3H53.2c-19.6 0-35.7 16.1-35.7 35.7v183.7c0 19.6 16.1 35.7 35.7 35.7h151.4c19.6 0 39.1-15.7 43.3-34.9l17.1-78.2C269.2 137 259.4 112.2 243.3 101zM88.3 155.7H49.1c-4.4 0-7.9-4.1-7.9-9.2 0-5.1 3.5-9.2 7.9-9.2h39.2c4.4 0 7.9 4.1 7.9 9.2C96.2 151.6 92.7 155.7 88.3 155.7zM212.6 118.1l-153.1 0c-14 0-25.5-11.5-25.5-25.5V57.9c0-14 11.5-25.5 25.5-25.5h29.3c14 0 34.9 6.5 46.5 14.5l81.8 56.7C228.7 111.6 226.6 118.1 212.6 118.1z" fill="#fff"/></svg>
