<svg xmlns="http://www.w3.org/2000/svg" width="283" height="283" viewBox="0 0 283.5 283.5"><path d="M274.3 139.9c1.1-6.6 1.6-15.1-3.8-22.6 -8.4-11.8-20.3-18.3-34.3-18.9 -5-0.2-10.3-0.3-16.7-0.3 -4.3 0-8.5 0-12.8 0.1 -2.9 0-5.8 0.1-8.7 0.1 0.6-3.9 1.1-7.9 1.4-11.8 1.2-15.2-1.3-28.2-7.4-39.9 -5.9-11.3-13.9-18.3-24.2-21.6 -3.1-1-6.1-1.5-8.9-1.5 -6.6 0-12.4 2.5-17.2 7.6 -3.1 3.3-4.6 7.1-4.4 11.4 0.1 1.6 0 3.2 0 4.9 -0.1 2.4-0.1 4.8 0.1 7.4 0.8 9.4-0.9 18.4-5.3 27.7 -0.4 0.9-0.8 1.8-1.1 2.6 -0.2 0.4-0.4 0.9-0.5 1.3 -3.8 8.8-8.6 18.7-15.9 26.9 -3.8-8.8-12.9-15-23.4-15l-0.4 0c-6.8 0.1-14.1 0.1-23 0.1 -5.5 0-10.9 0-16.4 0 -5.5 0-11 0-16.5 0h-1.1c-14.6 0-25.1 10.6-25.1 25.2C8.5 160.5 8.5 197.6 8.5 234.7c0 2.5 0.2 4.6 0.7 6.6 2.9 11.5 12.6 18.7 25.3 18.7 9.1 0 18.2 0 27.3 0 9.4 0 18.9 0 28.3 0 11.3 0 19.7-5.2 23.9-14.6 5.1 2.5 10.5 3.7 16.2 3.7l0.2 0c14.1-0.1 29.1-0.1 46-0.1 16.2 0 32.4 0 48.6 0.1 6.4 0 11.9-2.3 16.4-6.8 7-7.1 11.3-16.1 12.6-27 0 0 0-0.1 0.1-0.2 3.7-3.6 6.4-7.8 8.2-12.5 2.7-7.2 3.2-14.4 3.2-20.6 6.8-8.7 8.6-19.2 5.5-31.2 0.3-1 0.7-2 1-3.1C272.9 145.4 273.8 142.8 274.3 139.9zM248.9 154.6c1.7 3.4 2 6.8 1 10.2 -0.5 1.5-1.4 3-2.5 4.2 -2.9 3-4.2 6.4-4.3 11 -0.1 5.3-0.4 9.5-1.1 13.3 -0.5 2.9-2 5.1-4.4 6.5 -3.9 2.3-5.9 6.2-5.6 10.9 0.3 5.2-1.5 10.2-5.4 15.2 -0.6 0.8-1.2 1.2-2.7 1.2 0 0 0 0 0 0 -6.6 0-13.7-0.1-22.9-0.1 -4.1 0-52.2 0-52.2 0 -6.6 0-13.1 0-19.7 0 -4.5 0-8-2.4-12.6-6.7 0-22.1 0-50.8 0-79.6 12-8.3 21.7-19.9 28.7-34.7 3.7-7.7 6.8-15.7 9.9-23.4 1.1-2.7 2.1-5.4 3.2-8.1 0.9-2.1 0.9-4.2 0.9-6 0-5.9 0-11.8 0-17.7l0-5.2c1.3 0 2.8 0.5 4.4 1.4 5.2 3.1 8.8 8.1 11.2 15.5 3.1 9.5 3.5 19.9 1.1 33 -0.5 2.7-1.1 5.4-1.8 8.2l-0.5 2c-1.2 5.1 0.3 8.5 1.8 10.4 1.5 1.9 4.4 4.1 9.6 4.1 2 0 4 0 6.1 0 4 0 8 0 12 0 4 0 8 0 12 0 7.6 0 13.8 0 19.5 0.1 6.6 0.1 12.2 3 17.2 8.9 0.2 0.3 0.7 1.4 0.8 3.3 0.1 1.6-0.1 3.5-0.3 5.6 -0.1 0.6-0.1 1.3-0.2 1.9 0 0.1 0 0.2 0 0.3C247.5 143 246.1 149 248.9 154.6zM30.6 234.3c0-36.8 0-73.6 0-110.4 0-3 0.7-3.6 3.7-3.6 9.3 0 18.5 0 27.8 0 9.5 0 19 0 28.5 0 3.1 0 3.7 0.6 3.7 3.8l0 110.1c0 2.7-0.4 3.5-3.4 3.5 -9.5 0-18.9 0-28.4 0 -9.5 0-18.9 0-28.4 0C31.1 237.7 30.6 237.2 30.6 234.3z" fill="#fff"/></svg>
